<svg xmlns="http://www.w3.org/2000/svg" viewBox="0 0 100 100" fill="none">
  <defs>
    <linearGradient id="g" x1="0%" y1="0%" x2="100%" y2="100%">
      <stop offset="0%" stop-color="#06b6d4" />
      <stop offset="50%" stop-color="#3b82f6" />
      <stop offset="100%" stop-color="#06b6d4" />
    </linearGradient>
  </defs>
  <rect width="100" height="100" rx="12" fill="#0a0e17" />
  <path d="M 50 18 C 33 18, 16 24, 12 38 C 8 52, 13 65, 22 73 C 32 82, 44 86, 52 85 C 64 84, 76 78, 82 66 C 88 54, 91 40, 87 28 C 84 20, 77 14, 68 13 C 59 12, 50 14, 44 20 C 38 26, 35 34, 36 42 C 37 49, 42 54, 47 58 C 50 60, 53 60, 53 57 C 53 54, 49 49, 49 43 C 49 37, 51 31, 55 27 C 59 23, 64 21, 69 23 C 74 25, 78 31, 80 39 C 82 47, 81 55, 75 63 C 70 71, 61 77, 52 78 C 43 79, 33 75, 25 67 C 17 59, 13 47, 17 33 C 21 19, 33 12, 50 12 Z" fill="none" stroke="url(#g)" stroke-width="4" stroke-linecap="round"/>
  <ellipse cx="43" cy="19" rx="5.5" ry="4" fill="#0a0e17" stroke="url(#g)" stroke-width="2.5"/>
  <path d="M 38.5 17 L 42.5 12.5 L 46.5 17" fill="none" stroke="url(#g)" stroke-width="2" stroke-linecap="round"/>
  <path d="M 39 20.5 L 43 24 L 47 20" fill="none" stroke="url(#g)" stroke-width="2" stroke-linecap="round"/>
  <circle cx="40" cy="16" r="1.5" fill="#ef4444"/>
  <path d="M 47 21 L 50 26" stroke="#06b6d4" stroke-width="2.5" stroke-linecap="round"/>
</svg>
